<svg xmlns="http://www.w3.org/2000/svg" viewBox="0 0 640 334" width="640" height="334" font-family="system-ui, -apple-system, Segoe UI, sans-serif"><rect width="640" height="334" fill="#fcfcfb"/><g><rect x="60" y="4" width="11" height="11" rx="3" fill="#008300"/><text x="77" y="14" font-size="11.5" fill="#52514e">Priority greedy</text><rect x="196" y="4" width="11" height="11" rx="3" fill="#2a78d6"/><text x="213" y="14" font-size="11.5" fill="#52514e">Hybrid CP-SAT</text></g><g transform="translate(0,24)"><line x1="60" y1="264.0" x2="624" y2="264.0" stroke="#e1e0d9" stroke-width="1"/><text x="52" y="268.0" text-anchor="end" font-size="10.5" fill="#898781">1 ms</text><line x1="60" y1="214.8" x2="624" y2="214.8" stroke="#e1e0d9" stroke-width="1"/><text x="52" y="218.8" text-anchor="end" font-size="10.5" fill="#898781">10 ms</text><line x1="60" y1="165.6" x2="624" y2="165.6" stroke="#e1e0d9" stroke-width="1"/><text x="52" y="169.6" text-anchor="end" font-size="10.5" fill="#898781">100 ms</text><line x1="60" y1="116.4" x2="624" y2="116.4" stroke="#e1e0d9" stroke-width="1"/><text x="52" y="120.4" text-anchor="end" font-size="10.5" fill="#898781">1 s</text><line x1="60" y1="67.2" x2="624" y2="67.2" stroke="#e1e0d9" stroke-width="1"/><text x="52" y="71.2" text-anchor="end" font-size="10.5" fill="#898781">10 s</text><line x1="60" y1="18.0" x2="624" y2="18.0" stroke="#e1e0d9" stroke-width="1"/><text x="52" y="22.0" text-anchor="end" font-size="10.5" fill="#898781">100 s</text><rect x="101.0" y="178.0" width="52.0" height="86.0" rx="4" fill="#008300"/><text x="127.0" y="172.0" text-anchor="middle" font-size="10.5" font-weight="600" fill="#52514e">56 ms</text><rect x="155.0" y="152.3" width="52.0" height="111.7" rx="4" fill="#2a78d6"/><text x="181.0" y="146.3" text-anchor="middle" font-size="10.5" font-weight="600" fill="#52514e">186 ms</text><text x="154.0" y="286" text-anchor="middle" font-size="11.5" fill="#0b0b0b">10 cases</text><text x="154.0" y="301" text-anchor="middle" font-size="10.5" fill="#898781">both interactive</text><rect x="289.0" y="158.1" width="52.0" height="105.9" rx="4" fill="#008300"/><text x="315.0" y="152.1" text-anchor="middle" font-size="10.5" font-weight="600" fill="#52514e">142 ms</text><rect x="343.0" y="96.4" width="52.0" height="167.6" rx="4" fill="#2a78d6"/><text x="369.0" y="90.4" text-anchor="middle" font-size="10.5" font-weight="600" fill="#52514e">2.545 s</text><text x="342.0" y="286" text-anchor="middle" font-size="11.5" fill="#0b0b0b">25 cases</text><text x="342.0" y="301" text-anchor="middle" font-size="10.5" fill="#898781">all runs OPTIMAL</text><rect x="477.0" y="140.3" width="52.0" height="123.7" rx="4" fill="#008300"/><text x="503.0" y="134.3" text-anchor="middle" font-size="10.5" font-weight="600" fill="#52514e">327 ms</text><rect x="531.0" y="53.0" width="52.0" height="211.0" rx="4" fill="#2a78d6"/><text x="557.0" y="47.0" text-anchor="middle" font-size="10.5" font-weight="600" fill="#52514e">19.466 s</text><text x="530.0" y="286" text-anchor="middle" font-size="11.5" fill="#0b0b0b">50 cases</text><text x="530.0" y="301" text-anchor="middle" font-size="10.5" fill="#898781">36/40 hit time limit</text><line x1="60" y1="264" x2="624" y2="264" stroke="#c3c2b7" stroke-width="1"/><text transform="translate(14,141) rotate(-90)" text-anchor="middle" font-size="11" fill="#52514e">mean runtime (log scale)</text></g></svg>