<svg xmlns="http://www.w3.org/2000/svg" viewBox="0 0 560 324" width="560" height="324" font-family="system-ui, -apple-system, Segoe UI, sans-serif"><rect width="560" height="324" fill="#fcfcfb"/><g><rect x="60" y="4" width="11" height="11" rx="3" fill="#008300"/><text x="77" y="14" font-size="11.5" fill="#52514e">Priority greedy</text><rect x="196" y="4" width="11" height="11" rx="3" fill="#2a78d6"/><text x="213" y="14" font-size="11.5" fill="#52514e">Hybrid CP-SAT</text></g><g transform="translate(0,24)"><line x1="60" y1="254.0" x2="544" y2="254.0" stroke="#e1e0d9" stroke-width="1"/><text x="52" y="258.0" text-anchor="end" font-size="10.5" fill="#898781">0.0</text><line x1="60" y1="206.8" x2="544" y2="206.8" stroke="#e1e0d9" stroke-width="1"/><text x="52" y="210.8" text-anchor="end" font-size="10.5" fill="#898781">1.8</text><line x1="60" y1="159.6" x2="544" y2="159.6" stroke="#e1e0d9" stroke-width="1"/><text x="52" y="163.6" text-anchor="end" font-size="10.5" fill="#898781">3.6</text><line x1="60" y1="112.4" x2="544" y2="112.4" stroke="#e1e0d9" stroke-width="1"/><text x="52" y="116.4" text-anchor="end" font-size="10.5" fill="#898781">5.4</text><line x1="60" y1="65.2" x2="544" y2="65.2" stroke="#e1e0d9" stroke-width="1"/><text x="52" y="69.2" text-anchor="end" font-size="10.5" fill="#898781">7.2</text><line x1="60" y1="18.0" x2="544" y2="18.0" stroke="#e1e0d9" stroke-width="1"/><text x="52" y="22.0" text-anchor="end" font-size="10.5" fill="#898781">9.0</text><rect x="87.7" y="214.7" width="52.0" height="39.3" rx="4" fill="#008300"/><text x="113.7" y="208.7" text-anchor="middle" font-size="10.5" font-weight="600" fill="#52514e">1.50</text><rect x="141.7" y="230.9" width="52.0" height="23.1" rx="4" fill="#2a78d6"/><text x="167.7" y="224.9" text-anchor="middle" font-size="10.5" font-weight="600" fill="#52514e">0.88</text><text x="140.7" y="276" text-anchor="middle" font-size="11.5" fill="#0b0b0b">10 cases</text><text x="140.7" y="291" text-anchor="middle" font-size="10.5" fill="#898781">−0.63 h</text><rect x="249.0" y="159.9" width="52.0" height="94.1" rx="4" fill="#008300"/><text x="275.0" y="153.9" text-anchor="middle" font-size="10.5" font-weight="600" fill="#52514e">3.59</text><rect x="303.0" y="207.1" width="52.0" height="46.9" rx="4" fill="#2a78d6"/><text x="329.0" y="201.1" text-anchor="middle" font-size="10.5" font-weight="600" fill="#52514e">1.79</text><text x="302.0" y="276" text-anchor="middle" font-size="11.5" fill="#0b0b0b">25 cases</text><text x="302.0" y="291" text-anchor="middle" font-size="10.5" fill="#898781">−1.80 h</text><rect x="410.3" y="73.6" width="52.0" height="180.4" rx="4" fill="#008300"/><text x="436.3" y="67.6" text-anchor="middle" font-size="10.5" font-weight="600" fill="#52514e">6.88</text><rect x="464.3" y="173.2" width="52.0" height="80.8" rx="4" fill="#2a78d6"/><text x="490.3" y="167.2" text-anchor="middle" font-size="10.5" font-weight="600" fill="#52514e">3.08</text><text x="463.3" y="276" text-anchor="middle" font-size="11.5" fill="#0b0b0b">50 cases</text><text x="463.3" y="291" text-anchor="middle" font-size="10.5" fill="#898781">−3.79 h</text><line x1="60" y1="254" x2="544" y2="254" stroke="#c3c2b7" stroke-width="1"/><text transform="translate(14,136) rotate(-90)" text-anchor="middle" font-size="11" fill="#52514e">mean waiting time (h)</text></g></svg>